<?xml version="1.0" encoding="UTF-8" standalone="no"?>
<svg width="27px" height="19px" viewBox="0 0 27 19" version="1.1" xmlns="http://www.w3.org/2000/svg" xmlns:xlink="http://www.w3.org/1999/xlink" xmlns:sketch="http://www.bohemiancoding.com/sketch/ns">
    <!-- Generator: Sketch 3.3.3 (12081) - http://www.bohemiancoding.com/sketch -->
    <title>Slice 1</title>
    <desc>Created with Sketch.</desc>
    <defs></defs>
    <g id="Page-1" stroke="none" stroke-width="1" fill="none" fill-rule="evenodd" sketch:type="MSPage">
        <g id="Group-+-um-+-Group-Copy" sketch:type="MSLayerGroup">
            <g id="Group" sketch:type="MSShapeGroup">
                <g id="PumpIcon">
                    <path d="M4.74137931,8.44097222 C5.98878107,8.44097222 7,6.83139322 7,4.8458769 C7,2.86036058 5.98878107,1.25078158 4.74137931,1.25078158 C3.49397755,1.25078158 2.48275862,2.86036058 2.48275862,4.8458769 C2.48275862,6.83139322 3.49397755,8.44097222 4.74137931,8.44097222 Z" id="Oval-1" stroke="#FFFFFF" stroke-width="1.5"></path>
                    <path d="M1.24137931,1.73596694 C1.24137931,0.783403493 2.00984817,0.011198243 2.97566691,0.011198243 L2.82040586,0.011198243 C3.77822646,0.011198243 4.56832038,0.783434307 4.58461328,1.74685035 C4.58461328,1.74685035 4.69416351,7.64054032 4.69416351,11.3492701 C4.69416351,12.4909078 4.69416351,9.57919427 4.69416351,10.843534 C4.69416351,12.1078738 4.63846256,11.3373869 4.63846256,11.3373869 C4.09704721,12.0911361 2.8934641,12.7021705 1.92746237,12.7021705 L2.97206028,12.7021705 C2.01623157,12.7021705 1.24137931,11.9273974 1.24137931,10.9774018 L1.24137931,1.73596694 Z" id="Rectangle-1" fill="#FFFFFF"></path>
                    <ellipse id="Oval-3" fill="#FFFFFF" cx="1.24137931" cy="3.01041667" rx="1.24137931" ry="1.23958333"></ellipse>
                    <ellipse id="Oval-3-Copy" fill="#FFFFFF" cx="1.24137931" cy="8.44097222" rx="1.24137931" ry="1.23958333"></ellipse>
                </g>
            </g>
            <text id="um" sketch:type="MSTextLayer" font-family="Bauhaus 93" font-size="10.0347222" font-weight="normal" letter-spacing="-0.400000006" fill="#FFFFFF">
                <tspan x="6.85221675" y="12.71875">u</tspan>
                <tspan x="11.8762585" y="12.71875">m</tspan>
            </text>
        </g>
        <g id="PumpIcon-Copy" sketch:type="MSLayerGroup" transform="translate(19.500000, 7.000000)">
            <path d="M4.06403941,7.14236111 C5.13324092,7.14236111 6,5.78040965 6,4.10035738 C6,2.4203051 5.13324092,1.05835364 4.06403941,1.05835364 C2.9948379,1.05835364 2.12807882,2.4203051 2.12807882,4.10035738 C2.12807882,5.78040965 2.9948379,7.14236111 4.06403941,7.14236111 Z" id="Oval-1" stroke="#FFFFFF" stroke-width="1.5" sketch:type="MSShapeGroup"></path>
            <path d="M1.06403941,1.48010387 C1.06403941,0.667898214 1.722727,0.0094754364 2.55057163,0.0094754364 L2.41749074,0.0094754364 C3.23847982,0.0094754364 3.91592252,0.67544509 3.92996261,1.49563776 C3.92996261,1.49563776 4.02356872,6.46507258 4.02356872,9.60322856 C4.02356872,10.5692297 4.02356872,8.10547207 4.02356872,9.17529803 C4.02356872,10.245124 3.97831096,9.58246477 3.97831096,9.58246477 C3.51286773,10.2261668 2.48011208,10.7479904 1.6521106,10.7479904 L2.54748024,10.7479904 C1.72819849,10.7479904 1.06403941,10.0762482 1.06403941,9.27736196 L1.06403941,1.48010387 Z" id="Rectangle-1" fill="#FFFFFF" sketch:type="MSShapeGroup"></path>
            <ellipse id="Oval-3" fill="#FFFFFF" sketch:type="MSShapeGroup" cx="1.06403941" cy="2.54727564" rx="1.06403941" ry="1.04887821"></ellipse>
            <ellipse id="Oval-3-Copy" fill="#FFFFFF" sketch:type="MSShapeGroup" cx="1.06403941" cy="7.14236111" rx="1.06403941" ry="1.04887821"></ellipse>
        </g>
    </g>
</svg>